# xmcd
#
# Track frame offsets: 
#        187
#        16137
#        34192
#        51900
#        71920
#        90700
#        108600
#        126060
#        145182
#
# Disc length: 2309 seconds
#
# Revision: 2
# Processed by: cddbd v1.5.2PL0 Copyright (c) Steve Scherf et al.
# Submitted via: ExactAudioCopy v1.1
#
DISCID=7d090309
DTITLE=長山洋子 - ヴィーナス VDR-1351
DYEAR=1987
DGENRE=Pop
TTITLE0=ヴィーナス (English Version)
TTITLE1=トゥ・オブ・ハーツ
TTITLE2=ミスター・マンデイ
TTITLE3=アイ・ライク・ユー
TTITLE4=サニー
TTITLE5=パパ・ドント・プリーチ
TTITLE6=ギブ・ミー・アップ
TTITLE7=愛はため息のように
TTITLE8=ヴィーナス (Extended Version)
EXTD=
EXTT0=
EXTT1=
EXTT2=
EXTT3=
EXTT4=
EXTT5=
EXTT6=
EXTT7=
EXTT8=
PLAYORDER=
